<svg xmlns="http://www.w3.org/2000/svg" xmlns:xlink="http://www.w3.org/1999/xlink" width="475" zoomAndPan="magnify" viewBox="0 0 356.25 131.249995" height="175" preserveAspectRatio="xMidYMid meet" version="1.0"><defs><g/><clipPath id="a8a1baab2b"><path d="M 34 36.574219 L 66.480469 36.574219 L 66.480469 76 L 34 76 Z M 34 36.574219 " clip-rule="nonzero"/></clipPath><clipPath id="bf73554e37"><path d="M 17.261719 79 L 59 79 L 59 93.996094 L 17.261719 93.996094 Z M 17.261719 79 " clip-rule="nonzero"/></clipPath></defs><g fill="#ff7722" fill-opacity="1"><g transform="translate(66.657584, 81.817597)"><g><path d="M 53.921875 -37.984375 L 53.921875 -35.703125 L 47.859375 -35.703125 L 47.859375 0 L 39.875 0 L 39.875 -15.3125 C 38.4375 -14.59375 36.8125 -14.234375 35 -14.234375 C 34.238281 -14.234375 33.5 -14.300781 32.78125 -14.4375 C 33.25 -13.332031 33.484375 -12.066406 33.484375 -10.640625 C 33.484375 -8.566406 32.765625 -6.65625 31.328125 -4.90625 C 29.898438 -3.15625 27.953125 -1.769531 25.484375 -0.75 C 23.015625 0.257812 20.300781 0.765625 17.34375 0.765625 C 14.5625 0.765625 12.070312 0.363281 9.875 -0.4375 C 7.675781 -1.238281 5.972656 -2.328125 4.765625 -3.703125 C 3.566406 -5.078125 2.96875 -6.628906 2.96875 -8.359375 C 2.96875 -9.921875 3.71875 -11.21875 5.21875 -12.25 C 6.71875 -13.28125 8.773438 -13.796875 11.390625 -13.796875 C 11.097656 -12.617188 10.953125 -11.3125 10.953125 -9.875 C 10.953125 -7.71875 11.5625 -5.867188 12.78125 -4.328125 C 14.007812 -2.796875 15.53125 -2.03125 17.34375 -2.03125 C 19.707031 -2.03125 21.519531 -2.84375 22.78125 -4.46875 C 24.050781 -6.09375 24.6875 -8.148438 24.6875 -10.640625 C 24.6875 -12.367188 24.253906 -13.9375 23.390625 -15.34375 C 22.523438 -16.757812 21.34375 -17.878906 19.84375 -18.703125 C 18.34375 -19.523438 16.707031 -19.9375 14.9375 -19.9375 C 13.125 -19.9375 11.476562 -19.679688 10 -19.171875 L 12.03125 -22.90625 C 15.28125 -22.90625 17.757812 -23.613281 19.46875 -25.03125 C 21.175781 -26.445312 22.03125 -28.484375 22.03125 -31.140625 C 22.03125 -32.617188 21.566406 -33.851562 20.640625 -34.84375 C 19.710938 -35.832031 18.570312 -36.328125 17.21875 -36.328125 C 15.65625 -36.328125 14.34375 -35.90625 13.28125 -35.0625 C 12.226562 -34.21875 11.703125 -33.144531 11.703125 -31.84375 C 11.703125 -30.488281 12.234375 -29.347656 13.296875 -28.421875 C 12.535156 -27.492188 11.664062 -26.785156 10.6875 -26.296875 C 9.71875 -25.816406 8.726562 -25.578125 7.71875 -25.578125 C 6.625 -25.578125 5.6875 -25.960938 4.90625 -26.734375 C 4.125 -27.515625 3.734375 -28.625 3.734375 -30.0625 C 3.734375 -31.625 4.332031 -33.066406 5.53125 -34.390625 C 6.738281 -35.722656 8.375 -36.78125 10.4375 -37.5625 C 12.507812 -38.34375 14.769531 -38.734375 17.21875 -38.734375 C 19.875 -38.734375 22.234375 -38.394531 24.296875 -37.71875 C 26.367188 -37.050781 27.972656 -36.132812 29.109375 -34.96875 C 30.253906 -33.8125 30.828125 -32.535156 30.828125 -31.140625 C 30.828125 -29.328125 30.003906 -27.617188 28.359375 -26.015625 C 26.710938 -24.410156 24.390625 -23.1875 21.390625 -22.34375 C 24.304688 -21.914062 26.734375 -21.03125 28.671875 -19.6875 C 30.566406 -18.164062 32.675781 -17.40625 35 -17.40625 C 36.644531 -17.40625 38.269531 -17.847656 39.875 -18.734375 L 39.875 -35.703125 L 36.078125 -35.703125 L 36.078125 -37.984375 Z M 53.921875 -37.984375 "/></g></g></g><g fill="#ff7722" fill-opacity="1"><g transform="translate(119.815232, 81.817597)"><g><path d="M 47.09375 -37.984375 L 47.09375 -35.703125 L 41.015625 -35.703125 L 41.015625 0 L 33.046875 0 L 33.046875 -20.828125 L 26.390625 -20.828125 C 26.304688 -17.910156 25.75 -15.21875 24.71875 -12.75 C 23.6875 -10.28125 22.164062 -8.296875 20.15625 -6.796875 C 18.15625 -5.304688 15.71875 -4.5625 12.84375 -4.5625 C 10.90625 -4.5625 9.125 -4.953125 7.5 -5.734375 C 5.875 -6.515625 4.597656 -7.566406 3.671875 -8.890625 C 2.742188 -10.222656 2.28125 -11.710938 2.28125 -13.359375 C 2.28125 -16.523438 3.585938 -18.960938 6.203125 -20.671875 C 8.816406 -22.378906 12.507812 -23.234375 17.28125 -23.234375 L 18.421875 -23.234375 L 18.421875 -31.515625 C 18.421875 -33.710938 18.050781 -35.378906 17.3125 -36.515625 C 16.570312 -37.660156 15.59375 -38.234375 14.375 -38.234375 C 13.1875 -38.234375 12.265625 -37.820312 11.609375 -37 C 10.960938 -36.175781 10.640625 -35.109375 10.640625 -33.796875 C 10.640625 -32.617188 11.003906 -31.617188 11.734375 -30.796875 C 12.472656 -29.972656 13.351562 -29.539062 14.375 -29.5 C 12.6875 -27.9375 10.828125 -27.15625 8.796875 -27.15625 C 7.273438 -27.15625 6.007812 -27.679688 5 -28.734375 C 3.988281 -29.785156 3.484375 -31.09375 3.484375 -32.65625 C 3.484375 -35.1875 4.515625 -37.148438 6.578125 -38.546875 C 8.648438 -39.941406 11.25 -40.640625 14.375 -40.640625 C 16.5625 -40.640625 18.570312 -40.207031 20.40625 -39.34375 C 22.25 -38.476562 23.707031 -37.285156 24.78125 -35.765625 C 25.851562 -34.242188 26.390625 -32.578125 26.390625 -30.765625 L 26.390625 -23.234375 L 33.046875 -23.234375 L 33.046875 -35.703125 L 28.546875 -35.703125 L 28.546875 -37.984375 Z M 18.421875 -20.828125 L 17.28125 -20.828125 C 14.75 -20.828125 12.941406 -20.222656 11.859375 -19.015625 C 10.785156 -17.816406 10.25 -16.078125 10.25 -13.796875 C 10.25 -12.023438 10.535156 -10.441406 11.109375 -9.046875 C 11.679688 -7.660156 12.617188 -6.96875 13.921875 -6.96875 C 15.398438 -6.96875 16.519531 -7.863281 17.28125 -9.65625 C 18.039062 -11.445312 18.421875 -13.820312 18.421875 -16.78125 Z M 18.421875 -20.828125 "/></g></g></g><g fill="#ff7722" fill-opacity="1"><g transform="translate(166.14413, 81.817597)"><g><path d="M -9.296875 -46.265625 C -10.609375 -46.265625 -11.738281 -46.726562 -12.6875 -47.65625 C -13.632812 -48.59375 -14.109375 -49.710938 -14.109375 -51.015625 C -14.109375 -52.367188 -13.644531 -53.507812 -12.71875 -54.4375 C -11.789062 -55.363281 -10.648438 -55.828125 -9.296875 -55.828125 C -7.992188 -55.828125 -6.867188 -55.363281 -5.921875 -54.4375 C -4.972656 -53.507812 -4.5 -52.367188 -4.5 -51.015625 C -4.5 -49.710938 -4.972656 -48.59375 -5.921875 -47.65625 C -6.867188 -46.726562 -7.992188 -46.265625 -9.296875 -46.265625 Z M -9.296875 -46.265625 "/></g></g></g><g fill="#ff7722" fill-opacity="1"><g transform="translate(166.138327, 81.817597)"><g><path d="M 48.546875 -37.984375 L 48.546875 -35.703125 L 42.46875 -35.703125 L 42.46875 0 L 34.5 0 L 34.5 -35.703125 L 20.515625 -35.703125 C 23.335938 -33.628906 25.488281 -31.222656 26.96875 -28.484375 C 28.445312 -25.742188 29.1875 -22.957031 29.1875 -20.125 C 29.1875 -17.59375 28.613281 -15.25 27.46875 -13.09375 C 26.332031 -10.945312 24.65625 -9.238281 22.4375 -7.96875 C 20.21875 -6.707031 17.570312 -6.078125 14.5 -6.078125 C 12.007812 -6.078125 9.820312 -6.539062 7.9375 -7.46875 C 6.0625 -8.394531 4.617188 -9.660156 3.609375 -11.265625 C 2.597656 -12.867188 2.09375 -14.679688 2.09375 -16.703125 C 2.09375 -18.859375 2.671875 -20.832031 3.828125 -22.625 C 4.984375 -24.414062 6.550781 -25.835938 8.53125 -26.890625 C 10.519531 -27.953125 12.71875 -28.484375 15.125 -28.484375 C 15.675781 -28.484375 16.085938 -28.25 16.359375 -27.78125 C 16.640625 -27.320312 16.78125 -26.753906 16.78125 -26.078125 C 15.59375 -26.078125 14.484375 -25.664062 13.453125 -24.84375 C 12.421875 -24.019531 11.597656 -22.910156 10.984375 -21.515625 C 10.367188 -20.128906 10.0625 -18.65625 10.0625 -17.09375 C 10.0625 -14.4375 10.566406 -12.347656 11.578125 -10.828125 C 12.597656 -9.304688 13.84375 -8.546875 15.3125 -8.546875 C 17 -8.546875 18.398438 -9.546875 19.515625 -11.546875 C 20.640625 -13.554688 21.203125 -16.414062 21.203125 -20.125 C 21.203125 -23.882812 20.367188 -27.132812 18.703125 -29.875 C 17.035156 -32.613281 14.832031 -34.554688 12.09375 -35.703125 L -0.765625 -35.703125 L -0.765625 -37.984375 Z M 48.546875 -37.984375 "/></g></g></g><g fill="#ff7722" fill-opacity="1"><g transform="translate(213.916929, 81.817597)"><g><path d="M 28.484375 -11.90625 C 27.472656 -9.414062 25.847656 -7.441406 23.609375 -5.984375 C 21.367188 -4.523438 18.859375 -3.796875 16.078125 -3.796875 C 13.378906 -3.796875 10.992188 -4.351562 8.921875 -5.46875 C 6.859375 -6.59375 5.253906 -8.15625 4.109375 -10.15625 C 2.972656 -12.164062 2.40625 -14.5 2.40625 -17.15625 C 2.40625 -20.019531 2.984375 -22.570312 4.140625 -24.8125 C 5.304688 -27.050781 6.878906 -28.789062 8.859375 -30.03125 C 10.847656 -31.28125 13.0625 -31.90625 15.5 -31.90625 C 18.5 -31.90625 20.988281 -31.3125 22.96875 -30.125 C 24.957031 -28.945312 25.953125 -27.28125 25.953125 -25.125 C 25.953125 -23.5625 25.304688 -22.367188 24.015625 -21.546875 C 22.734375 -20.722656 21.1875 -20.3125 19.375 -20.3125 C 19.375 -23.019531 19.035156 -25.226562 18.359375 -26.9375 C 17.679688 -28.644531 16.726562 -29.5 15.5 -29.5 C 14.03125 -29.5 12.804688 -28.460938 11.828125 -26.390625 C 10.859375 -24.328125 10.375 -21.753906 10.375 -18.671875 C 10.375 -15.335938 11.113281 -12.550781 12.59375 -10.3125 C 14.070312 -8.082031 16.035156 -6.96875 18.484375 -6.96875 C 20.628906 -6.96875 22.617188 -7.90625 24.453125 -9.78125 C 26.296875 -11.65625 27.640625 -14.09375 28.484375 -17.09375 L 28.484375 -35.703125 L -0.765625 -35.703125 L -0.765625 -37.984375 L 42.65625 -37.984375 L 42.65625 -35.703125 L 36.453125 -35.703125 L 36.453125 0 L 28.484375 0 Z M 28.484375 -11.90625 "/></g></g></g><g fill="#ff7722" fill-opacity="1"><g transform="translate(255.810221, 81.817597)"><g><path d="M 19.375 -35.703125 L 13.296875 -35.703125 L 13.296875 0 L 5.3125 0 L 5.3125 -35.703125 L -0.765625 -35.703125 L -0.765625 -37.984375 L 19.375 -37.984375 Z M 19.375 -35.703125 "/></g></g></g><g fill="#ff7722" fill-opacity="1"><g transform="translate(274.415384, 81.817597)"><g><path d="M 52.09375 -35.703125 L 46.015625 -35.703125 L 46.015625 0 L 38.046875 0 L 38.046875 -35.703125 L 26.515625 -35.703125 C 28.671875 -33.671875 30.398438 -31.398438 31.703125 -28.890625 C 33.015625 -26.378906 33.671875 -23.835938 33.671875 -21.265625 C 33.671875 -18.734375 32.960938 -16.484375 31.546875 -14.515625 C 30.140625 -12.554688 28.234375 -11.039062 25.828125 -9.96875 C 23.421875 -8.894531 20.738281 -8.359375 17.78125 -8.359375 C 14.957031 -8.359375 12.375 -8.894531 10.03125 -9.96875 C 7.6875 -11.039062 5.828125 -12.554688 4.453125 -14.515625 C 3.085938 -16.484375 2.40625 -18.734375 2.40625 -21.265625 C 2.40625 -23.921875 2.960938 -26.503906 4.078125 -29.015625 C 5.203125 -31.523438 6.773438 -33.753906 8.796875 -35.703125 L -0.765625 -35.703125 L -0.765625 -37.984375 L 52.09375 -37.984375 Z M 14.9375 -35.703125 C 13.5 -34.179688 12.378906 -32.332031 11.578125 -30.15625 C 10.773438 -27.988281 10.375 -25.660156 10.375 -23.171875 C 10.375 -20.679688 10.703125 -18.492188 11.359375 -16.609375 C 12.015625 -14.734375 12.910156 -13.289062 14.046875 -12.28125 C 15.191406 -11.269531 16.457031 -10.765625 17.84375 -10.765625 C 19.320312 -10.765625 20.648438 -11.289062 21.828125 -12.34375 C 23.015625 -13.394531 23.957031 -14.890625 24.65625 -16.828125 C 25.351562 -18.773438 25.703125 -21.015625 25.703125 -23.546875 C 25.703125 -27.929688 23.925781 -31.984375 20.375 -35.703125 Z M 14.9375 -35.703125 "/></g></g></g><g fill="#ff7722" fill-opacity="1"><g transform="translate(325.737827, 81.817597)"><g><path d="M 19.375 -37.984375 L 19.375 -35.703125 L 13.296875 -35.703125 L 13.296875 0 L 5.3125 0 L 5.3125 -35.703125 L -0.765625 -35.703125 L -0.765625 -37.984375 L 6.765625 -37.984375 L 3.734375 -39.5 C 5.085938 -40.132812 6.175781 -41.070312 7 -42.3125 C 7.820312 -43.5625 8.234375 -44.859375 8.234375 -46.203125 C 8.234375 -48.015625 7.722656 -49.46875 6.703125 -50.5625 C 5.691406 -51.664062 4.195312 -52.21875 2.21875 -52.21875 C 0.738281 -52.21875 -0.726562 -51.691406 -2.1875 -50.640625 C -3.644531 -49.585938 -4.890625 -47.992188 -5.921875 -45.859375 C -6.953125 -43.722656 -7.59375 -41.097656 -7.84375 -37.984375 L -10.765625 -39.5 C -10.503906 -43.71875 -9.570312 -47.070312 -7.96875 -49.5625 C -6.363281 -52.050781 -4.492188 -53.78125 -2.359375 -54.75 C -0.234375 -55.71875 1.835938 -56.203125 3.859375 -56.203125 C 7.742188 -56.203125 10.769531 -55.273438 12.9375 -53.421875 C 15.113281 -51.566406 16.203125 -49.160156 16.203125 -46.203125 C 16.203125 -44.679688 15.875 -43.203125 15.21875 -41.765625 C 14.5625 -40.335938 13.644531 -39.078125 12.46875 -37.984375 Z M 19.375 -37.984375 "/></g></g></g><g fill="#ff7722" fill-opacity="1"><g transform="translate(344.352004, 81.817597)"><g/></g></g><g clip-path="url(#a8a1baab2b)"><path fill="#000000" d="M 65.84375 36.570312 L 65.789062 36.570312 C 64.289062 36.703125 61.789062 37.472656 58.28125 38.878906 C 56.277344 39.769531 54.269531 40.878906 52.261719 42.210938 C 49.820312 43.835938 47.53125 45.613281 45.398438 47.535156 C 43.683594 49.203125 42.167969 50.894531 40.847656 52.613281 L 38.40625 56.191406 L 36.828125 59.171875 L 35.625 62.195312 L 34.800781 65.269531 L 34.351562 68.386719 L 34.277344 71.550781 L 34.484375 73.75 C 42.28125 62.652344 49.558594 53.59375 56.308594 46.574219 L 42.511719 64.113281 L 34.574219 74.742188 L 34.015625 75.875 L 35.464844 75.925781 C 39.988281 75.855469 44.789062 73.84375 49.867188 69.878906 C 49.949219 69.738281 49.90625 69.652344 49.738281 69.617188 C 47.140625 69.632812 45.824219 69.496094 45.789062 69.207031 C 48.699219 67.652344 51.0625 66.074219 52.878906 64.46875 C 49.597656 65.210938 47.746094 65.535156 47.316406 65.441406 C 49.515625 64.722656 52.054688 63.421875 54.929688 61.539062 C 54.992188 61.421875 54.945312 61.371094 54.789062 61.378906 C 53.710938 61.535156 53.050781 61.605469 52.8125 61.585938 C 52.636719 61.59375 52.578125 61.515625 52.644531 61.347656 C 54.527344 60.128906 56.75 57.859375 59.3125 54.546875 L 55.117188 55.550781 C 54.535156 55.632812 54.308594 55.550781 54.4375 55.308594 C 56.183594 54.429688 58.320312 53.03125 60.84375 51.105469 C 62.164062 50.015625 63.171875 48.949219 63.871094 47.910156 L 64.867188 46.078125 C 65.109375 45.316406 65.371094 44.121094 65.652344 42.492188 C 66.109375 39.648438 66.359375 37.90625 66.410156 37.265625 C 66.453125 36.859375 66.261719 36.625 65.84375 36.570312 Z M 65.84375 36.570312 " fill-opacity="1" fill-rule="nonzero"/></g><path fill="#000000" d="M 39.371094 64.878906 L 38.984375 65.402344 L 38.585938 65.972656 C 38.308594 66.386719 38.007812 66.871094 37.683594 67.425781 C 37.359375 67.976562 37.011719 68.601562 36.636719 69.296875 C 35.894531 70.6875 35.054688 72.363281 34.117188 74.316406 C 34.671875 73.445312 35.164062 72.710938 35.59375 72.105469 C 37.714844 69.160156 39.457031 66.792969 40.828125 65.003906 L 39.371094 64.878906 " fill-opacity="1" fill-rule="nonzero"/><path fill="#000000" d="M 41.773438 65.089844 L 41.207031 65.835938 L 32.707031 77.207031 C 31.160156 80.347656 29.78125 83.328125 28.578125 86.148438 C 28.457031 86.425781 28.449219 86.589844 28.558594 86.644531 C 31.710938 81.601562 34.527344 77.410156 37 74.066406 C 39.28125 70.949219 41.585938 68.019531 43.910156 65.277344 Z M 41.773438 65.089844 " fill-opacity="1" fill-rule="nonzero"/><g clip-path="url(#bf73554e37)"><path fill="#000000" d="M 27.273438 79.65625 L 27.113281 79.65625 C 25.59375 79.667969 24.347656 79.808594 23.378906 80.082031 C 22.390625 80.363281 21.34375 80.855469 20.230469 81.566406 C 18.515625 82.71875 17.597656 84.226562 17.476562 86.09375 C 17.335938 88.117188 18.210938 90.011719 20.109375 91.789062 C 21.535156 93.121094 23.691406 93.816406 26.574219 93.875 C 28.308594 93.945312 29.828125 93.421875 31.140625 92.304688 C 32.253906 91.429688 32.652344 90.125 32.335938 88.382812 C 32.046875 87.414062 31.558594 86.734375 30.863281 86.347656 C 31.925781 87.6875 32.230469 89.011719 31.765625 90.324219 C 31.160156 91.691406 30.074219 92.589844 28.5 93.023438 C 27.207031 93.316406 25.808594 93.328125 24.308594 93.050781 C 23.019531 92.835938 21.828125 92.316406 20.734375 91.488281 C 18.785156 89.914062 17.9375 87.886719 18.195312 85.410156 C 18.613281 83.390625 20.246094 81.875 23.089844 80.851562 C 24.914062 80.242188 27.394531 80.132812 30.535156 80.515625 C 31.339844 80.625 32.308594 80.796875 33.4375 81.039062 C 40.144531 82.683594 43.875 83.566406 44.628906 83.6875 C 46.523438 84.070312 48.3125 84.316406 49.992188 84.417969 C 52.941406 84.644531 55.921875 84.230469 58.929688 83.179688 C 55.183594 83.855469 51.6875 84.007812 48.449219 83.644531 C 47.027344 83.488281 45.492188 83.230469 43.851562 82.871094 C 42.648438 82.621094 39.410156 81.84375 34.128906 80.539062 L 32.3125 80.160156 C 30.882812 79.855469 29.203125 79.6875 27.273438 79.65625 " fill-opacity="1" fill-rule="nonzero"/></g></svg>